<svg width="94" height="94" viewBox="0 0 94 94" fill="none" xmlns="http://www.w3.org/2000/svg">
<path d="M46.5 94C72.1812 94 93 73.1812 93 47.5C93 21.8188 72.1812 1 46.5 1C20.8188 1 0 21.8188 0 47.5C0 73.1812 20.8188 94 46.5 94Z" fill="#8ef7fb"/>
<path d="M48.146 1.823H45.677C21.3593 1.823 1.646 21.5363 1.646 45.854V48.323C1.646 72.6406 21.3593 92.354 45.677 92.354H48.146C72.4636 92.354 92.177 72.6406 92.177 48.323V45.854C92.177 21.5363 72.4636 1.823 48.146 1.823Z" stroke="#1e1e1e" stroke-width="3"/>
<path d="M88.062 47.4999C88.062 70.454 69.4541 89.0619 46.5001 89.0619C23.546 89.0619 4.93811 70.454 4.93811 47.4999C4.93811 24.5459 23.546 5.93799 46.5001 5.93799C69.4541 5.93799 88.062 24.5459 88.062 47.4999Z" fill="#1e1e1e"/>
<path d="M41.7388 40.0323L39.844 33.5546L37.4789 33.9589L39.2244 40.8201L41.7388 40.0323Z" fill="white"/>
<path d="M43.1878 39.7131L41.293 33.2353L53.0338 30.2978L54.3958 37.0098L43.1878 39.7131Z" fill="white"/>
<path d="M55.8448 36.6905L54.0992 29.8293L56.2302 28.8923L58.2099 36.2863L55.8448 36.6905Z" fill="white"/>
<path d="M41.0375 62.6158L43.158 56.2083L40.9819 55.1975L38.5207 61.8357L41.0375 62.6158Z" fill="white"/>
<path d="M42.4114 63.1761L44.5318 56.7687L55.863 61.0208L53.171 67.3183L42.4114 63.1761Z" fill="white"/>
<path d="M54.5449 67.8787L57.006 61.2404L59.292 61.6798L56.721 68.8896L54.5449 67.8787Z" fill="white"/>
<path fill-rule="evenodd" clip-rule="evenodd" d="M46.9116 79.1642C64.1719 79.1642 78.1642 65.1719 78.1642 47.9116C78.1642 30.6512 64.1719 16.6589 46.9116 16.6589C29.6512 16.6589 15.6589 30.6512 15.6589 47.9116C15.6589 65.1719 29.6512 79.1642 46.9116 79.1642ZM46.9116 80.0089C64.6384 80.0089 79.0089 65.6384 79.0089 47.9116C79.0089 30.1847 64.6384 15.8142 46.9116 15.8142C29.1847 15.8142 14.8142 30.1847 14.8142 47.9116C14.8142 65.6384 29.1847 80.0089 46.9116 80.0089Z" fill="white"/>
<path fill-rule="evenodd" clip-rule="evenodd" d="M47.3231 74.2478C62.0955 74.2478 74.0709 62.2724 74.0709 47.5C74.0709 32.7276 62.0955 20.7522 47.3231 20.7522C32.5507 20.7522 20.5753 32.7276 20.5753 47.5C20.5753 62.2724 32.5507 74.2478 47.3231 74.2478ZM47.3231 75.0708C62.55 75.0708 74.8939 62.7269 74.8939 47.5C74.8939 32.2731 62.55 19.9292 47.3231 19.9292C32.0962 19.9292 19.7523 32.2731 19.7523 47.5C19.7523 62.7269 32.0962 75.0708 47.3231 75.0708Z" fill="white"/>
<path fill-rule="evenodd" clip-rule="evenodd" d="M78.186 43.3848H74.0709V42.5618H78.186V43.3848Z" fill="white"/>
<path fill-rule="evenodd" clip-rule="evenodd" d="M78.186 52.8494H74.0709V52.0264H78.186V52.8494Z" fill="white"/>
<path d="M55.1417 53.6726L51.0266 48.323L48.9691 49.5575L53.0842 55.3186L55.1417 53.6726Z" fill="white"/>
<path d="M56.3762 52.8496L52.2612 47.5L62.1373 40.5044L65.8408 46.2655L56.3762 52.8496Z" fill="white"/>
<path d="M67.0753 45.4425L62.9603 39.6814L64.6063 38.0354L69.1328 44.208L67.0753 45.4425Z" fill="white"/>
<mask id="mask0_14_616" style="mask-type:alpha" maskUnits="userSpaceOnUse" x="4" y="5" width="85" height="85">
<path d="M88.062 47.4999C88.062 70.454 69.4541 89.0619 46.5001 89.0619C23.546 89.0619 4.93811 70.454 4.93811 47.4999C4.93811 24.5459 23.546 5.93799 46.5001 5.93799C69.4541 5.93799 88.062 24.5459 88.062 47.4999Z" fill="#b52f2f"/>
</mask>
<g mask="url(#mask0_14_616)">
<path d="M46.0886 48.323C46.0886 63.0954 34.1132 75.0708 19.3408 75.0708C4.56841 75.0708 -7.40698 63.0954 -7.40698 48.323C-7.40698 33.5506 4.56841 21.5752 19.3408 21.5752C34.1132 21.5752 46.0886 33.5506 46.0886 48.323Z" fill="#1e1e1e"/>
<path fill-rule="evenodd" clip-rule="evenodd" d="M19.3408 74.2478C33.6587 74.2478 45.2656 62.6408 45.2656 48.323C45.2656 34.0051 33.6587 22.3982 19.3408 22.3982C5.02295 22.3982 -6.58397 34.0051 -6.58397 48.323C-6.58397 62.6408 5.02295 74.2478 19.3408 74.2478ZM19.3408 75.0708C34.1132 75.0708 46.0886 63.0954 46.0886 48.323C46.0886 33.5506 34.1132 21.5752 19.3408 21.5752C4.56841 21.5752 -7.40698 33.5506 -7.40698 48.323C-7.40698 63.0954 4.56841 75.0708 19.3408 75.0708Z" fill="white"/>
</g>
</svg>
