<svg width="94" height="94" viewBox="0 0 94 94" fill="none" xmlns="http://www.w3.org/2000/svg">
<g clip-path="url(#clip0_14_576)">
<path d="M46.5 94C72.1812 94 93 73.1812 93 47.5C93 21.8188 72.1812 1 46.5 1C20.8188 1 0 21.8188 0 47.5C0 73.1812 20.8188 94 46.5 94Z" fill="#8ef7fb"/>
<path d="M46.4999 89.0619C69.454 89.0619 88.0619 70.454 88.0619 47.4999C88.0619 24.5459 69.454 5.93799 46.4999 5.93799C23.5459 5.93799 4.93799 24.5459 4.93799 47.4999C4.93799 70.454 23.5459 89.0619 46.4999 89.0619Z" fill="#1e1e1e"/>
<path d="M63.6516 54.874V48.5308H65.096L65.12 49.8307L64.8432 49.9752C64.9234 49.6863 65.0799 49.4256 65.3126 49.1928C65.5454 48.9521 65.8221 48.7595 66.1431 48.6151C66.4641 48.4706 66.7931 48.3984 67.1301 48.3984C67.6116 48.3984 68.0128 48.4947 68.3338 48.6873C68.6627 48.8799 68.9075 49.1688 69.068 49.5539C69.2366 49.9391 69.3207 50.4206 69.3207 50.9983V54.874H67.8403V51.1066C67.8403 50.7857 67.7961 50.5208 67.7079 50.3122C67.6196 50.0956 67.4832 49.9391 67.2986 49.8428C67.1141 49.7385 66.8894 49.6903 66.6246 49.6984C66.408 49.6984 66.2073 49.7344 66.0228 49.8067C65.8462 49.8709 65.6898 49.9672 65.5533 50.0956C65.425 50.2159 65.3207 50.3564 65.2404 50.5169C65.1682 50.6773 65.132 50.8539 65.132 51.0465V54.874H64.3978C64.2534 54.874 64.117 54.874 63.9886 54.874C63.8682 54.874 63.7559 54.874 63.6516 54.874Z" fill="white"/>
<path d="M60.2936 54.8742V48.531H61.774V54.8742H60.2936ZM61.0158 47.1829C60.7189 47.1829 60.4862 47.1106 60.3176 46.9662C60.1571 46.8138 60.0769 46.6011 60.0769 46.3283C60.0769 46.0715 60.1612 45.8629 60.3297 45.7024C60.4982 45.5419 60.7269 45.4617 61.0158 45.4617C61.3207 45.4617 61.5534 45.5379 61.7139 45.6904C61.8824 45.8348 61.9666 46.0475 61.9666 46.3283C61.9666 46.5771 61.8824 46.7817 61.7139 46.9422C61.5454 47.1027 61.3127 47.1829 61.0158 47.1829Z" fill="white"/>
<path d="M48.8403 54.8742V48.5309H50.2968L50.3208 49.8067L50.0801 49.903C50.1524 49.6944 50.2607 49.5018 50.4051 49.3253C50.5496 49.1408 50.7221 48.9843 50.9227 48.8559C51.1233 48.7195 51.3359 48.6152 51.5606 48.5429C51.7853 48.4627 52.0139 48.4226 52.2467 48.4226C52.5917 48.4226 52.8966 48.4787 53.1615 48.5911C53.4343 48.6954 53.659 48.8639 53.8355 49.0967C54.02 49.3293 54.1565 49.6263 54.2447 49.9873L54.0161 49.9392L54.1124 49.7466C54.2006 49.554 54.3249 49.3815 54.4854 49.229C54.6459 49.0685 54.8265 48.9281 55.0271 48.8078C55.2277 48.6794 55.4363 48.5831 55.653 48.5189C55.8777 48.4547 56.0984 48.4226 56.315 48.4226C56.7964 48.4226 57.1977 48.5189 57.5186 48.7115C57.8396 48.9041 58.0803 49.1969 58.2408 49.5901C58.4013 49.9833 58.4815 50.4688 58.4815 51.0465V54.8742H56.989V51.1428C56.989 50.8218 56.9449 50.5571 56.8567 50.3484C56.7764 50.1398 56.6481 49.9873 56.4715 49.891C56.303 49.7867 56.0903 49.7346 55.8335 49.7346C55.633 49.7346 55.4404 49.7707 55.2558 49.8429C55.0792 49.9071 54.9268 50.0034 54.7984 50.1318C54.67 50.2522 54.5697 50.3926 54.4975 50.553C54.4253 50.7135 54.3891 50.8901 54.3891 51.0827V54.8742H52.8966V51.1308C52.8966 50.8259 52.8525 50.5731 52.7643 50.3725C52.676 50.1638 52.5476 50.0074 52.3791 49.903C52.2106 49.7907 52.006 49.7346 51.7652 49.7346C51.5646 49.7346 51.376 49.7707 51.1995 49.8429C51.0229 49.9071 50.8705 49.9993 50.7421 50.1197C50.6138 50.2401 50.5134 50.3805 50.4412 50.541C50.369 50.7015 50.3329 50.8781 50.3329 51.0706V54.8742H48.8403Z" fill="white"/>
<path d="M41.2391 55.0881C40.0266 55.0881 38.9852 54.7814 38.115 54.168C37.259 53.5403 36.5957 52.6558 36.1249 51.5146C35.6685 50.3591 35.4402 48.9825 35.4402 47.3848C35.4402 45.7871 35.6685 44.4176 36.1249 43.2763C36.5957 42.1208 37.259 41.2363 38.115 40.6229C38.9852 39.9952 40.0266 39.6814 41.2391 39.6814C42.4517 39.6814 43.4931 39.9952 44.3632 40.6229C45.2335 41.2363 45.8968 42.1208 46.3533 43.2763C46.824 44.4176 47.0594 45.7871 47.0594 47.3848C47.0594 48.9825 46.824 50.3591 46.3533 51.5146C45.8968 52.6558 45.2335 53.5403 44.3632 54.168C43.4931 54.7814 42.4517 55.0881 41.2391 55.0881ZM41.2391 52.6487C42.2377 52.6487 43.0081 52.1922 43.5501 51.2792C44.1065 50.352 44.3846 49.0538 44.3846 47.3848C44.3846 45.7015 44.1065 44.3962 43.5501 43.4689C43.0081 42.5416 42.2377 42.078 41.2391 42.078C40.2406 42.078 39.4631 42.5416 38.9067 43.4689C38.3647 44.3962 38.0936 45.7015 38.0936 47.3848C38.0936 49.0538 38.3647 50.352 38.9067 51.2792C39.4631 52.1922 40.2406 52.6487 41.2391 52.6487Z" fill="white"/>
<path d="M28.3619 55.0881C27.2492 55.0881 26.2791 54.8455 25.4517 54.3605C24.6244 53.8612 23.8611 53.0195 23.1621 51.8355L25.2591 50.5089C25.5873 51.0367 25.9225 51.4646 26.2649 51.7928C26.6215 52.1066 26.9782 52.3419 27.3348 52.4989C27.7057 52.6415 28.0979 52.7129 28.5117 52.7129C28.9824 52.7129 29.4104 52.5987 29.7956 52.3705C30.195 52.1422 30.5089 51.8284 30.7371 51.429C30.9796 51.0295 31.1009 50.5731 31.1009 50.0595C31.1009 49.5459 31.001 49.1108 30.8013 48.7542C30.6159 48.3975 30.3377 48.1265 29.9667 47.9411C29.6101 47.7413 29.175 47.6415 28.6615 47.6415C28.4332 47.6415 28.1907 47.67 27.9339 47.7271C27.6771 47.7699 27.4061 47.8412 27.1208 47.9411C26.8354 48.0267 26.5216 48.1337 26.1793 48.262L25.4945 46.4432L29.7528 41.7356L30.3947 42.3561L24.0822 42.3133V39.8525H32.8769L33.3905 40.8797L28.4689 46.2506L27.8269 45.5445C27.9411 45.4874 28.1265 45.4375 28.3833 45.3947C28.6543 45.3376 28.8897 45.3091 29.0894 45.3091C29.7171 45.3091 30.3163 45.4303 30.8869 45.6729C31.4575 45.9011 31.9496 46.2292 32.3633 46.6572C32.7913 47.0851 33.1265 47.5844 33.3691 48.1551C33.6116 48.7114 33.7328 49.3176 33.7328 49.9739C33.7328 50.9582 33.4903 51.8355 33.0053 52.6059C32.5345 53.3619 31.8926 53.9682 31.0795 54.4247C30.2663 54.8669 29.3604 55.0881 28.3619 55.0881Z" fill="white"/>
<path d="M75.1607 38.8507L75.7023 24.606L63.0953 31.2593L75.1607 38.8507ZM61.1027 72.9755C55.1325 76.5518 48.0817 77.8796 41.2196 76.7197L40.8081 79.1542C48.2501 80.412 55.8967 78.9721 62.3714 75.0935L61.1027 72.9755ZM41.2196 76.7197C34.3575 75.5599 28.1347 71.9887 23.6715 66.6489L21.7771 68.2324C26.6175 74.0234 33.3661 77.8964 40.8081 79.1542L41.2196 76.7197ZM23.6715 66.6489C19.2082 61.3092 16.7976 54.5516 16.8736 47.5926L14.4047 47.5657C14.3223 55.1127 16.9366 62.4414 21.7771 68.2324L23.6715 66.6489ZM16.8736 47.5926C16.9495 40.6336 19.507 33.9302 24.0858 28.6892L22.2264 27.0648C17.2607 32.7487 14.4871 40.0186 14.4047 47.5657L16.8736 47.5926ZM24.0858 28.6892C28.6646 23.4481 34.9637 20.0136 41.8495 19.0038L41.4913 16.561C34.0236 17.6561 27.1921 21.3808 22.2264 27.0648L24.0858 28.6892ZM41.8495 19.0038C48.7353 17.9941 55.7554 19.4754 61.6462 23.1812L62.9608 21.0913C56.5723 17.0724 48.959 15.4659 41.4913 16.561L41.8495 19.0038ZM61.6462 23.1812C64.4796 24.9637 66.9622 27.2045 69.0065 29.7898L70.9432 28.2585C68.7263 25.4547 66.0338 23.0245 62.9608 21.0913L61.6462 23.1812Z" fill="white"/>
<path d="M47.7346 2.23462H45.2656C20.948 2.23462 1.23462 21.948 1.23462 46.2656V48.7346C1.23462 73.0523 20.948 92.7656 45.2656 92.7656H47.7346C72.0523 92.7656 91.7656 73.0523 91.7656 48.7346V46.2656C91.7656 21.948 72.0523 2.23462 47.7346 2.23462Z" stroke="#1e1e1e" stroke-width="3"/>
</g>
<defs>
<clipPath id="clip0_14_576">
<rect width="93" height="95" fill="white"/>
</clipPath>
</defs>
</svg>
