<svg width="94" height="94" viewBox="0 0 94 94" fill="none" xmlns="http://www.w3.org/2000/svg">
<circle cx="46.5" cy="46.5" r="46.5" fill="#8ef7fb"/>
<rect x="1.5" y="1.5" width="90" height="90" rx="45" stroke="#1e1e1e" stroke-width="3"/>
<path d="M88.0619 46.4999C88.0619 69.454 69.454 88.0619 46.4999 88.0619C23.5459 88.0619 4.93799 69.454 4.93799 46.4999C4.93799 23.5459 23.5459 4.93799 46.4999 4.93799C69.454 4.93799 88.0619 23.5459 88.0619 46.4999Z" fill="white"/>
<mask id="mask0_14_589" style="mask-type:alpha" maskUnits="userSpaceOnUse" x="4" y="4" width="85" height="85">
<circle cx="46.4999" cy="46.4999" r="41.5619" fill="#d9d9d9"/>
</mask>
<g mask="url(#mask0_14_589)">
<path d="M3.70353 2.05737L35.8009 6.58392C35.8009 6.85826 35.0602 8.64144 32.0973 13.5795C29.1345 18.5175 28.6681 20.5751 28.8053 20.9866C28.531 22.6326 28.8876 26.0069 32.5088 26.3361C36.1301 26.6653 37.5841 29.7653 37.8584 31.2742C32.5911 38.5167 37.3097 41.699 40.3274 42.3848C35.3894 45.3476 36.6239 47.7344 37.8584 48.5574L40.7389 52.2609L41.5619 58.4335C38.9283 66.3344 43.208 68.5839 45.677 68.7211H58.4336L70.3672 66.2521C73.9885 71.1901 74.6195 75.4423 74.4823 76.9512L76.5398 88.8848L69.1327 95.4689L49.3805 102.053L21.8097 98.3494L-22.6328 73.2476L-26.7478 26.3361L3.70353 2.05737Z" fill="#1e1e1e"/>
</g>
<mask id="mask1_14_589" style="mask-type:alpha" maskUnits="userSpaceOnUse" x="4" y="4" width="85" height="85">
<path d="M46.4999 88.0619C69.454 88.0619 88.0619 69.454 88.0619 46.4999C88.0619 23.5459 69.454 4.93799 46.4999 4.93799C23.5459 4.93799 4.93799 23.5459 4.93799 46.4999C4.93799 69.454 23.5459 88.0619 46.4999 88.0619Z" fill="#d9d9d9"/>
</mask>
<g mask="url(#mask1_14_589)">
<path fill-rule="evenodd" clip-rule="evenodd" d="M35.9951 6.22122C36.1955 6.32854 36.2709 6.57794 36.1635 6.77827L29.9863 18.3092L29.9811 18.3178C29.3886 19.3053 28.8154 20.8405 28.9575 22.2519C29.0275 22.9473 29.2698 23.6054 29.7632 24.1645C30.2577 24.7249 31.0289 25.2139 32.2033 25.527C37.2839 26.8819 38.1851 29.8489 37.8486 31.3635L37.8413 31.3961L36.1807 35.5475C35.8699 36.2935 35.6808 37.5218 36.1351 38.7436C36.5818 39.9451 37.6743 41.2039 40.046 41.9944L40.7911 42.2428L40.1628 42.714C39.3612 43.3152 38.2953 44.3072 37.6748 45.3252C37.3643 45.8346 37.1876 46.3146 37.1793 46.733C37.1715 47.1281 37.3119 47.4978 37.7103 47.8298C39.7514 49.5307 40.8338 51.656 41.1293 52.5423L41.141 52.5775L41.9787 58.4414L41.1448 63.028C41.0228 63.8305 41.1544 65.0692 41.9534 66.1397C42.7433 67.1981 44.2304 68.1512 46.9356 68.3103C52.4967 68.6374 56.6083 68.4475 57.9679 68.313L70.5579 66.2146L70.7063 66.4305C71.474 67.5471 72.5988 69.443 73.4921 71.5215C74.3796 73.5865 75.0663 75.8945 74.8921 77.8115C74.8715 78.0378 74.6713 78.2046 74.445 78.184C74.2187 78.1635 74.0519 77.9633 74.0724 77.737C74.2274 76.0327 73.6111 73.8827 72.7359 71.8464C71.9222 69.9529 70.9087 68.212 70.1746 67.1129L58.0764 69.1292L58.063 69.1306C56.6656 69.2703 52.5009 69.4621 46.8873 69.1319C43.9961 68.9618 42.2597 67.926 41.2939 66.632C40.3389 65.3525 40.1813 63.8783 40.3322 62.8975L40.3339 62.8864L41.1451 58.4256L40.3369 52.7685C40.0658 51.9849 39.0649 50.0299 37.1834 48.462C36.5942 47.971 36.3437 47.3633 36.3565 46.7168C36.3688 46.0936 36.6241 45.4677 36.972 44.8969C37.5193 43.999 38.3507 43.1486 39.0916 42.5181C36.9791 41.6517 35.8597 40.3646 35.3637 39.0305C34.8241 37.5791 35.0455 36.134 35.4198 35.2338C35.4202 35.2329 35.4206 35.2319 35.421 35.231L37.0516 31.1543C37.2469 30.1755 36.7364 27.5876 31.9912 26.3223C30.6966 25.977 29.7704 25.4166 29.1461 24.7091C28.5207 24.0003 28.2229 23.1718 28.1386 22.3343C27.9725 20.6845 28.6298 18.9736 29.2702 17.9031L35.4381 6.38963C35.5454 6.1893 35.7948 6.11389 35.9951 6.22122ZM38.6268 23.3329C39.0836 23.2123 39.6074 23.1339 40.1739 23.1401C39.7574 23.0293 39.4147 23.0363 39.1401 23.1041C38.9495 23.1512 38.7784 23.2309 38.6268 23.3329ZM38.9427 22.3051C40.0116 22.0411 41.3833 22.4532 43.0717 23.9728L42.5923 24.6359C40.4585 23.4166 38.4061 24.1337 37.6751 24.621L36.6772 25.2863L37.0565 24.1485C37.2884 23.4526 37.883 22.5669 38.9427 22.3051ZM56.3007 31.4691L57.2667 39.1968L54.3437 38.6122L54.3432 38.6056L44.8539 40.4131V40.1701L42.4698 41.3622L41.4989 34.5662H44.8539V34.2119L53.8691 32.8596L54.2856 37.8577L53.887 32.6759L56.3007 31.4691ZM54.7501 33.1646L55.1164 37.9274L56.3084 38.1658L55.6284 32.7254L54.7501 33.1646ZM45.6769 34.9206V39.4185L53.4662 37.9349L53.1219 33.8039L45.6769 34.9206ZM42.4479 35.3893L43.123 40.1154L44.0309 39.6615V35.3893H42.4479Z" fill="#1e1e1e"/>
<path fill-rule="evenodd" clip-rule="evenodd" d="M52.7416 39.6877C52.8677 39.4986 53.1232 39.4475 53.3123 39.5736C53.601 39.766 53.8104 39.9855 53.9297 40.2345C54.0522 40.4902 54.0653 40.7477 54.0085 40.9806C53.9016 41.4183 53.5586 41.7402 53.3123 41.9044L53.253 41.9439L48.2458 43.1957C48.0253 43.2508 47.8019 43.1168 47.7468 42.8963C47.6916 42.6758 47.8257 42.4524 48.0462 42.3973L52.909 41.1815C53.0525 41.0722 53.1758 40.9209 53.2089 40.7854C53.2241 40.7233 53.2218 40.6619 53.1874 40.5901C53.1499 40.5117 53.0609 40.3951 52.8558 40.2583C52.6667 40.1323 52.6156 39.8768 52.7416 39.6877Z" fill="#1e1e1e"/>
<path fill-rule="evenodd" clip-rule="evenodd" d="M20.5752 32.9204L20.5752 37.0354L19.7522 37.0354L19.7522 32.9204L20.5752 32.9204Z" fill="white"/>
<path fill-rule="evenodd" clip-rule="evenodd" d="M26.3362 49.3806L26.3362 53.4956L25.5132 53.4956L25.5132 49.3806L26.3362 49.3806Z" fill="white"/>
<path fill-rule="evenodd" clip-rule="evenodd" d="M25.5132 38.6814H21.3982V37.8584H25.5132V38.6814Z" fill="white"/>
<path fill-rule="evenodd" clip-rule="evenodd" d="M31.2742 55.1416H27.1592V54.3186H31.2742V55.1416Z" fill="white"/>
<path fill-rule="evenodd" clip-rule="evenodd" d="M18.929 38.6814H14.814V37.8584H18.929V38.6814Z" fill="white"/>
<path fill-rule="evenodd" clip-rule="evenodd" d="M24.6902 55.1416H20.5752V54.3186H24.6902V55.1416Z" fill="white"/>
<path fill-rule="evenodd" clip-rule="evenodd" d="M20.5752 39.5043L20.5752 43.6194L19.7522 43.6194L19.7522 39.5043L20.5752 39.5043Z" fill="white"/>
<path fill-rule="evenodd" clip-rule="evenodd" d="M26.3362 55.9645L26.3362 60.0796L25.5132 60.0796L25.5132 55.9645L26.3362 55.9645Z" fill="white"/>
<path fill-rule="evenodd" clip-rule="evenodd" d="M15.2255 30.4512C15.9073 30.4512 16.46 29.8985 16.46 29.2167C16.46 28.5349 15.9073 27.9822 15.2255 27.9822C14.5437 27.9822 13.991 28.5349 13.991 29.2167C13.991 29.8985 14.5437 30.4512 15.2255 30.4512ZM15.2255 31.2742C16.3618 31.2742 17.283 30.353 17.283 29.2167C17.283 28.0804 16.3618 27.1592 15.2255 27.1592C14.0892 27.1592 13.168 28.0804 13.168 29.2167C13.168 30.353 14.0892 31.2742 15.2255 31.2742Z" fill="white"/>
<path fill-rule="evenodd" clip-rule="evenodd" d="M12.7565 53.4954C13.4383 53.4954 13.991 52.9427 13.991 52.2609C13.991 51.5791 13.4383 51.0264 12.7565 51.0264C12.0747 51.0264 11.522 51.5791 11.522 52.2609C11.522 52.9427 12.0747 53.4954 12.7565 53.4954ZM12.7565 54.3184C13.8928 54.3184 14.814 53.3972 14.814 52.2609C14.814 51.1246 13.8928 50.2034 12.7565 50.2034C11.6202 50.2034 10.699 51.1246 10.699 52.2609C10.699 53.3972 11.6202 54.3184 12.7565 54.3184Z" fill="white"/>
<path fill-rule="evenodd" clip-rule="evenodd" d="M31.6857 68.3096C32.3675 68.3096 32.9202 67.7569 32.9202 67.0751C32.9202 66.3933 32.3675 65.8406 31.6857 65.8406C31.0039 65.8406 30.4512 66.3933 30.4512 67.0751C30.4512 67.7569 31.0039 68.3096 31.6857 68.3096ZM31.6857 69.1326C32.822 69.1326 33.7432 68.2114 33.7432 67.0751C33.7432 65.9388 32.822 65.0176 31.6857 65.0176C30.5494 65.0176 29.6282 65.9388 29.6282 67.0751C29.6282 68.2114 30.5494 69.1326 31.6857 69.1326Z" fill="white"/>
</g>
<mask id="mask2_14_589" style="mask-type:alpha" maskUnits="userSpaceOnUse" x="4" y="4" width="85" height="85">
<path d="M88.0619 46.4999C88.0619 69.454 69.454 88.0619 46.4999 88.0619C23.5459 88.0619 4.93799 69.454 4.93799 46.4999C4.93799 23.5459 23.5459 4.93799 46.4999 4.93799C69.454 4.93799 88.0619 23.5459 88.0619 46.4999Z" fill="white"/>
</mask>
<g mask="url(#mask2_14_589)">
</g>
</svg>
