<?xml version="1.0" encoding="utf-8"?>
<svg xmlns="http://www.w3.org/2000/svg" viewBox="106.2739 144.026 329.4101 231.4998" width="430px" height="320px"><defs><filter id="filter0_f_7788_502" x="930.678" y="596.678" width="195.539" height="202.239" filterUnits="userSpaceOnUse" color-interpolation-filters="sRGB"><feFlood flood-opacity="0" result="BackgroundImageFix"/><feBlend mode="normal" in="SourceGraphic" in2="BackgroundImageFix" result="shape"/><feGaussianBlur stdDeviation="1.66122" result="effect1_foregroundBlur_7788_502"/></filter><linearGradient id="tealPurpleGradient" x1="0%" y1="0%" x2="100%" y2="100%"><stop offset="0" stop-color="#c2f0ea"/><stop offset="1" stop-color="#e3c2f0"/></linearGradient><filter id="filter1_f_7788_502" x="0.412628" y="-122.08" width="1230.13" height="1230.13" filterUnits="userSpaceOnUse" color-interpolation-filters="sRGB"><feFlood flood-opacity="0" result="BackgroundImageFix"/><feBlend mode="normal" in="SourceGraphic" in2="BackgroundImageFix" result="shape"/><feGaussianBlur stdDeviation="138.435" result="effect1_foregroundBlur_7788_502"/></filter><filter id="filter2_f_7788_502" x="1047.81" y="219.162" width="202.239" height="195.539" filterUnits="userSpaceOnUse" color-interpolation-filters="sRGB"><feFlood flood-opacity="0" result="BackgroundImageFix"/><feBlend mode="normal" in="SourceGraphic" in2="BackgroundImageFix" result="shape"/><feGaussianBlur stdDeviation="1.66122" result="effect1_foregroundBlur_7788_502"/></filter><filter id="filter3_f_7788_502" x="421.172" y="210.358" width="108.089" height="72.8559" filterUnits="userSpaceOnUse" color-interpolation-filters="sRGB"><feFlood flood-opacity="0" result="BackgroundImageFix"/><feBlend mode="normal" in="SourceGraphic" in2="BackgroundImageFix" result="shape"/><feGaussianBlur stdDeviation="0.59527" result="effect1_foregroundBlur_7788_502"/></filter><filter id="filter4_f_7788_502" x="485.239" y="690.977" width="192.9" height="79.9348" filterUnits="userSpaceOnUse" color-interpolation-filters="sRGB"><feFlood flood-opacity="0" result="BackgroundImageFix"/><feBlend mode="normal" in="SourceGraphic" in2="BackgroundImageFix" result="shape"/><feGaussianBlur stdDeviation="1.30129" result="effect1_foregroundBlur_7788_502"/></filter><filter id="filter5_dddddd_7788_502" x="-329.767" y="-722.044" width="2292.23" height="2292.49" filterUnits="userSpaceOnUse" color-interpolation-filters="sRGB"><feFlood flood-opacity="0" result="BackgroundImageFix"/><feColorMatrix in="SourceAlpha" type="matrix" values="0 0 0 0 0 0 0 0 0 0 0 0 0 0 0 0 0 0 127 0" result="hardAlpha"/><feOffset/><feGaussianBlur stdDeviation="12.1477"/><feColorMatrix type="matrix" values="0 0 0 0 0.490196 0 0 0 0 0.666667 0 0 0 0 0.94902 0 0 0 1 0"/><feBlend mode="normal" in2="BackgroundImageFix" result="effect1_dropShadow_7788_502"/><feColorMatrix in="SourceAlpha" type="matrix" values="0 0 0 0 0 0 0 0 0 0 0 0 0 0 0 0 0 0 127 0" result="hardAlpha"/><feOffset/><feGaussianBlur stdDeviation="24.2953"/><feColorMatrix type="matrix" values="0 0 0 0 0.490196 0 0 0 0 0.666667 0 0 0 0 0.94902 0 0 0 1 0"/><feBlend mode="normal" in2="effect1_dropShadow_7788_502" result="effect2_dropShadow_7788_502"/><feColorMatrix in="SourceAlpha" type="matrix" values="0 0 0 0 0 0 0 0 0 0 0 0 0 0 0 0 0 0 127 0" result="hardAlpha"/><feOffset/><feGaussianBlur stdDeviation="85.0336"/><feColorMatrix type="matrix" values="0 0 0 0 0.490196 0 0 0 0 0.666667 0 0 0 0 0.94902 0 0 0 1 0"/><feBlend mode="normal" in2="effect2_dropShadow_7788_502" result="effect3_dropShadow_7788_502"/><feColorMatrix in="SourceAlpha" type="matrix" values="0 0 0 0 0 0 0 0 0 0 0 0 0 0 0 0 0 0 127 0" result="hardAlpha"/><feOffset/><feGaussianBlur stdDeviation="170.067"/><feColorMatrix type="matrix" values="0 0 0 0 0.490196 0 0 0 0 0.666667 0 0 0 0 0.94902 0 0 0 1 0"/><feBlend mode="normal" in2="effect3_dropShadow_7788_502" result="effect4_dropShadow_7788_502"/><feColorMatrix in="SourceAlpha" type="matrix" values="0 0 0 0 0 0 0 0 0 0 0 0 0 0 0 0 0 0 127 0" result="hardAlpha"/><feOffset/><feGaussianBlur stdDeviation="291.544"/><feColorMatrix type="matrix" values="0 0 0 0 0.490196 0 0 0 0 0.666667 0 0 0 0 0.94902 0 0 0 1 0"/><feBlend mode="normal" in2="effect4_dropShadow_7788_502" result="effect5_dropShadow_7788_502"/><feColorMatrix in="SourceAlpha" type="matrix" values="0 0 0 0 0 0 0 0 0 0 0 0 0 0 0 0 0 0 127 0" result="hardAlpha"/><feOffset/><feGaussianBlur stdDeviation="510.202"/><feColorMatrix type="matrix" values="0 0 0 0 0.490196 0 0 0 0 0.666667 0 0 0 0 0.94902 0 0 0 1 0"/><feBlend mode="normal" in2="effect5_dropShadow_7788_502" result="effect6_dropShadow_7788_502"/><feBlend mode="normal" in="SourceGraphic" in2="effect6_dropShadow_7788_502" result="shape"/></filter><linearGradient id="paint0_linear_7788_502" x1="722.064" y1="338.564" x2="887.464" y2="528.486" gradientUnits="userSpaceOnUse"><stop stop-color="#F5F5F5"/><stop offset="1" stop-color="#BCE4E0"/></linearGradient><filter id="filter6_f_7788_502" x="920.728" y="383.779" width="80.7075" height="130.544" filterUnits="userSpaceOnUse" color-interpolation-filters="sRGB"><feFlood flood-opacity="0" result="BackgroundImageFix"/><feBlend mode="normal" in="SourceGraphic" in2="BackgroundImageFix" result="shape"/><feGaussianBlur stdDeviation="12.3207" result="effect1_foregroundBlur_7788_502"/></filter><linearGradient id="paint1_linear_7788_502" x1="904.897" y1="478.805" x2="945.271" y2="414.169" gradientUnits="userSpaceOnUse"><stop stop-color="#242E4A" stop-opacity="0"/><stop offset="1" stop-color="#0C0D1E"/></linearGradient><linearGradient id="paint2_linear_7788_502" x1="639.844" y1="390.078" x2="883.143" y2="410.912" gradientUnits="userSpaceOnUse"><stop stop-color="#0A0C1B"/><stop offset="1" stop-color="#3C3ED8"/></linearGradient><linearGradient id="paint3_linear_7788_502" x1="639.844" y1="390.078" x2="883.143" y2="410.912" gradientUnits="userSpaceOnUse"><stop stop-color="#0A0C1B"/><stop offset="1" stop-color="#3C3ED8"/></linearGradient><linearGradient id="paint4_linear_7788_502" x1="639.844" y1="390.078" x2="883.143" y2="410.912" gradientUnits="userSpaceOnUse"><stop stop-color="#0A0C1B"/><stop offset="1" stop-color="#3C3ED8"/></linearGradient></defs><mask id="mask0_7788_502" style="mask-type:alpha" maskUnits="userSpaceOnUse" x="494" y="108" width="677" height="677"><rect x="494.487" y="108" width="676.393" height="676.393" rx="338.197" fill="#C4C4C4"/></mask><g id="object-8"><g filter="url(#filter0_f_7788_502)" transform="matrix(0.338218, 0, 0, 0.338218, 12.492128, 94.404739)" style="" id="object-0"><path d="M934 600C1070.65 895.074 1098.41 792.701 1115.07 673.44L1122.89 679.323C1116.47 728.108 1116.94 720.3 1112.1 741.827C1107.25 763.353 1090.13 819.004 1042.39 784.672C1007.02 751.586 969.855 681.746 934 600Z" fill="#8EF7FB"/></g><circle cx="298.943" cy="251.226" r="107.2" fill="url(#tealPurpleGradient)" style="stroke-width: 1px;" id="object-1"/><g filter="url(#filter1_f_7788_502)" transform="matrix(0.338218, 0, 0, 0.338218, 12.492128, 94.404739)" style="" id="object-2"><rect x="277.282" y="154.79" width="676.393" height="676.393" rx="338.197" fill="#CEF6F8"/></g><g filter="url(#filter2_f_7788_502)" transform="matrix(0.338218, 0, 0, 0.338218, 12.492128, 94.404739)" style="" id="object-3"><path d="M1051.13 411.379C1346.21 274.732 1243.84 246.965 1124.57 230.306L1130.46 222.485C1179.24 228.908 1171.43 228.438 1192.96 233.283C1214.49 238.128 1270.14 255.252 1235.81 302.985C1202.72 338.355 1132.88 375.525 1051.13 411.379Z" fill="#8EF7FB"/></g><g filter="url(#filter3_f_7788_502)" transform="matrix(0.338218, 0, 0, 0.338218, 12.492128, 94.404739)" style="" id="object-4"><path d="M528.07 282.023L426.944 219.312C425.698 218.54 420.922 215.021 422.791 212.321C424.286 210.162 429.09 213.037 431.304 214.744L528.07 282.023Z" fill="#8EF7FB"/></g><g filter="url(#filter4_f_7788_502)" transform="matrix(0.338218, 0, 0, 0.338218, 12.492128, 94.404739)" style="" id="object-5"><path d="M497.337 754.007C491.991 747.938 489.008 740.655 487.842 733.992C490.116 742.411 493.359 748.977 497.337 754.007C513.036 771.829 549.117 779.173 619.424 729.562C654.255 706.581 666.285 697.191 667.946 695.368C671.914 693.246 678.661 691.271 673.899 700.352C657.24 713.111 619.859 736.832 598.105 746.807C572.556 758.523 521.453 784.502 497.337 754.007Z" fill="#8EF7FB"/></g><g mask="url(#mask0_7788_502)" transform="matrix(0.338218, 0, 0, 0.338218, 12.492128, 94.404739)" style="" id="object-6"><path d="M1044.07 812.252C995.852 755.655 894.315 633.931 869.23 628.671C850.735 617.263 781.37 596.409 772.049 589.441C755.045 578.274 721.465 559.581 697.986 529.014C674.508 498.448 670.345 493.206 671.199 494.405C669.33 492.744 665.814 488.356 666.7 484.092C667.586 479.828 668.915 474.702 669.469 472.671C669.1 470.895 670.092 467.341 677.013 467.341C682.069 467.341 696.461 468.594 709.388 470.354L710.515 467.341L648.288 417.366C647.273 417.551 645.298 415.691 645.519 406.776C645.796 395.632 653.549 385.803 666.7 388.918C674.905 390.861 690.745 397.646 702.169 402.87L706.085 399.785L661.439 356.593C659.04 352.948 655.681 343.207 661.439 333.406C668.638 321.154 683.174 318.385 692.38 322.538C699.744 325.861 715.937 331.168 723.112 333.406C726.521 336.257 730.204 340.018 732.942 344.054L762.912 333.406L732.872 299.057C718.452 283.506 700.049 255.644 741.801 268.601C771.924 285.823 796.044 308.886 800.151 311.378L854.002 342.819L887.365 383.519L903.839 406.776L919.413 399.785L931.526 388.918C928.896 384.903 923.497 375.421 922.943 369.606C912.514 358.047 894.785 326.913 907.3 294.851C909.376 287.514 916.52 276.772 928.48 292.498C940.441 308.224 962.212 332.598 971.603 342.819L983.439 373.967L979.078 414.252C976.355 428.689 971.344 449.677 967.441 468.68C964.933 480.893 966.264 493.545 970.934 505.105C982.687 534.196 1000.55 574.421 1019.36 589.441C1042.45 607.881 1099.77 668.649 1125.54 696.728L1251.24 812.252H1044.07Z" fill="#02000C"/><circle cx="816.348" cy="424.071" r="117.322" fill="#8EF7FB"/><g filter="url(#filter5_dddddd_7788_502)"><path d="M816.348 298.36C885.776 298.36 942.058 354.7 942.058 424.2C942.058 493.699 885.776 550.041 816.348 550.041C746.919 550.041 690.637 493.699 690.637 424.2C690.637 354.7 746.919 298.36 816.348 298.36ZM816.348 308.298C752.408 308.299 700.575 360.189 700.575 424.2C700.575 488.211 752.408 540.102 816.348 540.102C880.287 540.102 932.121 488.211 932.121 424.2C932.121 360.189 880.287 308.298 816.348 308.298Z" fill="url(#paint0_linear_7788_502)"/></g><g filter="url(#filter6_f_7788_502)"><path d="M976.794 427.818L964.244 470.284C961.286 476.27 961.974 485.71 962.687 489.682L950.623 482.408L945.37 408.421L976.794 427.818Z" fill="url(#paint1_linear_7788_502)"/></g><path d="M719.431 333.491L689.391 321.586C676.101 316.319 663.296 321.586 657.343 333.491C652.581 343.016 656.697 351.073 659.351 353.91C662.373 355.249 676.295 360.015 707.803 368.377C747.451 370.426 732.075 345.974 719.431 333.491Z" fill="url(#paint2_linear_7788_502)"/><path d="M703.857 403.539L664.473 389.627C656.859 386.937 651.391 385.681 642.946 396.41C636.19 404.993 642.023 412.076 645.784 414.545C649.637 416.437 664.667 423.28 693.959 435.518C737.76 436.847 718.808 414.753 703.857 403.539Z" fill="url(#paint3_linear_7788_502)"/><path d="M724 472.965L678.316 466.112C669.456 464.783 665.396 470.127 664.473 472.965C662.304 476.448 660.167 484.953 668.972 491.099C677.776 497.246 699.681 500.628 709.533 501.551C715.209 502.382 737.843 503.835 742.135 497.052C755.314 484.372 735.536 475.71 724 472.965Z" fill="url(#paint4_linear_7788_502)"/><path d="M719.431 333.491L689.391 321.586C676.101 316.319 663.296 321.586 657.343 333.491C652.581 343.016 656.697 351.073 659.351 353.91C662.373 355.249 676.295 360.015 707.803 368.377C747.451 370.426 732.075 345.974 719.431 333.491Z" stroke="black" stroke-width="0.138435"/><path d="M703.857 403.539L664.473 389.627C656.859 386.937 651.391 385.681 642.946 396.41C636.19 404.993 642.023 412.076 645.784 414.545C649.637 416.437 664.667 423.28 693.959 435.518C737.76 436.847 718.808 414.753 703.857 403.539Z" stroke="black" stroke-width="0.138435"/><path d="M724 472.965L678.316 466.112C669.456 464.783 665.396 470.127 664.473 472.965C662.304 476.448 660.167 484.953 668.972 491.099C677.776 497.246 699.681 500.628 709.533 501.551C715.209 502.382 737.843 503.835 742.135 497.052C755.314 484.372 735.536 475.71 724 472.965Z" stroke="black" stroke-width="0.138435"/></g><path fillRule="evenodd" clipRule="evenodd" d="M 301.447 224.546 L 295.033 233.897 L 298.641 230.445 L 298.407 231.921 L 294.665 235.419 L 296.099 228.002 L 291.182 234.381 L 289.783 236.197 L 291.339 235.179 L 293.293 233.901 L 292.271 240.326 L 298.318 232.48 L 297.619 236.87 L 304.977 227.323 L 300.013 231.963 L 301.447 224.546 Z M 289.387 236.972 L 289.489 237.49 C 289.597 238.043 289.388 238.453 288.862 238.722 C 288.327 238.995 288.006 238.855 287.897 238.302 L 287.059 234.034 L 284.964 235.102 L 285.775 239.233 C 285.936 240.053 286.229 240.581 286.652 240.816 C 287.076 241.051 287.583 241.018 288.174 240.716 C 288.66 240.468 289.015 240.149 289.237 239.76 C 289.459 239.37 289.589 238.963 289.629 238.538 L 289.689 238.507 L 289.933 239.75 L 292.027 238.682 L 291.429 235.636 L 289.387 236.972 Z M 289.235 236.201 L 291.072 233.818 L 290.745 232.153 L 288.65 233.222 L 289.235 236.201 Z M 278.679 238.309 L 280.773 237.24 L 281.018 238.483 L 281.077 238.452 C 281.117 238.027 281.248 237.62 281.469 237.23 C 281.691 236.841 282.046 236.522 282.532 236.274 C 283.123 235.972 283.63 235.94 284.053 236.175 C 284.477 236.41 284.769 236.937 284.931 237.757 L 285.742 241.888 L 283.648 242.957 L 282.809 238.688 C 282.701 238.136 282.379 237.996 281.845 238.268 C 281.318 238.537 281.109 238.948 281.217 239.5 L 282.056 243.769 L 279.961 244.837 L 278.679 238.309 Z M 273.954 247.902 L 273.546 245.762 C 273.55 245.759 273.568 245.751 273.597 245.736 L 273.597 245.736 C 274.045 245.509 277.2 243.915 277.185 243.837 C 277.168 243.753 277.12 243.731 277.04 243.772 L 275.031 244.673 C 274.474 244.92 274.021 244.958 273.671 244.786 C 273.328 244.602 273.094 244.196 272.971 243.569 C 272.834 242.874 272.902 242.259 273.175 241.724 C 273.446 241.181 273.916 240.738 274.586 240.397 L 278.069 238.62 L 278.386 240.806 C 278.381 240.809 278.364 240.818 278.335 240.832 L 278.335 240.832 L 278.335 240.833 C 277.893 241.055 274.823 242.606 274.838 242.685 C 274.843 242.71 274.857 242.735 274.88 242.761 C 274.908 242.774 274.943 242.77 274.983 242.75 L 276.992 241.849 C 277.549 241.602 277.999 241.57 278.342 241.754 C 278.692 241.925 278.929 242.325 279.052 242.953 C 279.189 243.647 279.121 244.266 278.851 244.81 C 278.578 245.345 278.107 245.783 277.437 246.125 L 273.954 247.902 Z" fill="white" id="object-9" style="stroke-width: 0.338px;"/></g></svg>