<svg width="151" height="40" viewBox="0 0 151 40" fill="none" xmlns="http://www.w3.org/2000/svg">
<path d="M143.316 0L102.639 21.9096L122.169 16.1033L118.576 20.991L98.4786 26.7174L117.454 2.6217L87.7398 16.5728L79.2813 20.5442L86.8291 19.7376L96.3067 18.725L80.6696 40L117.217 22.8405L106.532 37.3783L151 16.4997L124.341 24.0957L143.316 0ZM76.4037 22.6094L75.8118 24.6663C75.1815 26.8569 73.6597 27.9521 71.2462 27.9521C68.796 27.9521 67.8861 26.8569 68.5164 24.6663L73.3867 7.73942H63.7873L59.0746 24.1186C58.1388 27.3712 58.2231 29.8106 59.3277 31.4369C60.4322 33.0632 62.3375 33.8765 65.0435 33.8765C67.2742 33.8765 69.1546 33.3786 70.6843 32.3829C72.2142 31.3871 73.4452 30.1591 74.3774 28.6988H74.6515L73.2335 33.6275H82.8327L86.3074 21.5512L76.4037 22.6094ZM77.2829 19.553L88.3816 14.342L90.2812 7.73942H80.682L77.2829 19.553ZM34.9822 7.73942H44.5814L43.1634 12.668H43.4376C44.3698 11.2077 45.6007 9.97972 47.1306 8.98404C48.6604 7.98833 50.5407 7.49048 52.7714 7.49048C55.4774 7.49048 57.3827 8.30364 58.4873 9.92993C59.5918 11.5563 59.6761 13.9958 58.7404 17.2484L54.0276 33.6275H44.4284L49.2987 16.7007C49.9289 14.5101 49.0189 13.4149 46.5689 13.4149C44.1553 13.4149 42.6334 14.5101 42.0032 16.7007L37.133 33.6275H27.5337L34.9822 7.73942ZM0 33.6275L2.48672 25.1642C2.50884 25.1642 2.58945 25.1644 2.7214 25.1648C4.77145 25.1726 19.2021 25.227 19.2918 24.9152C19.3872 24.5832 19.2522 24.4173 18.8864 24.4173L9.90978 23.9692C7.42475 23.8365 5.70542 23.1396 4.75183 21.8782C3.84435 20.5838 3.74871 18.6921 4.46492 16.2028C5.25752 13.4481 6.64537 11.3571 8.62845 9.92993C10.6211 8.46959 13.1533 7.73942 16.225 7.73942H32.1872L29.2812 16.2028C29.259 16.2028 29.1799 16.2026 29.0509 16.2021H29.048C27.0288 16.1941 12.9851 16.1401 12.8955 16.4517C12.8669 16.5513 12.87 16.6675 12.9049 16.8003C12.986 16.8998 13.118 16.9496 13.3008 16.9496L22.2775 17.3976C24.7625 17.5304 26.4588 18.244 27.3663 19.5384C28.3199 20.7996 28.4385 22.6748 27.7224 25.1642C26.9297 27.9189 25.5372 30.0264 23.5445 31.4867C21.5613 32.914 19.034 33.6275 15.9622 33.6275H0Z" fill="#F1FDFF"/>
</svg>
