<svg width="159" height="31" viewBox="0 0 159 31" fill="none" xmlns="http://www.w3.org/2000/svg">
<path fill-rule="evenodd" clip-rule="evenodd" d="M106.171 0.239136L76.1605 16.5494L90.5691 12.2271L87.9186 15.8657L73.0906 20.1286L87.0903 2.19083L58.9269 15.5331L71.4882 14.1787L59.9512 30.0167L86.9156 17.2426L79.0321 28.0651L111.841 12.5222L92.1719 18.1769L106.171 0.239136ZM56.8038 17.0704L56.3671 18.6017C55.9021 20.2324 54.7793 21.0477 52.9987 21.0477C51.1909 21.0477 50.5196 20.2324 50.9846 18.6017L54.5779 6.00066H47.4955L44.0186 18.194C43.3281 20.6153 43.3903 22.4314 44.2052 23.6421C45.0201 24.8527 46.4259 25.4581 48.4224 25.4581C50.0682 25.4581 51.4555 25.0875 52.5841 24.3462C53.7128 23.605 54.6211 22.6908 55.3088 21.6037H55.5111L54.4648 25.2728H61.5471L64.1108 16.2826L56.8038 17.0704ZM57.4526 14.7952L65.6411 10.9159L67.0427 6.00066H59.9604L57.4526 14.7952ZM26.2432 6.00066H33.3255L32.2793 9.66975H32.4816C33.1694 8.58263 34.0775 7.66844 35.2062 6.92721C36.3349 6.18597 37.7222 5.81535 39.368 5.81535C41.3645 5.81535 42.7702 6.4207 43.5852 7.63138C44.4001 8.84207 44.4623 10.6581 43.7719 13.0795L40.2949 25.2728H33.2126L36.8058 12.6718C37.2708 11.041 36.5994 10.2257 34.7918 10.2257C33.0111 10.2257 31.8882 11.041 31.4232 12.6718L27.83 25.2728H20.7477L26.2432 6.00066ZM0.433472 25.2728L2.26817 18.9723C2.28449 18.9723 2.34396 18.9725 2.44132 18.9729C3.95383 18.9786 14.6007 19.0191 14.6668 18.787C14.7373 18.5399 14.6377 18.4163 14.3678 18.4163L7.74487 18.0828C5.91142 17.984 4.64291 17.4651 3.93935 16.5262C3.26982 15.5626 3.19926 14.1543 3.72767 12.3011C4.31246 10.2504 5.3364 8.69382 6.79951 7.63138C8.26966 6.54424 10.1379 6.00066 12.4042 6.00066H24.1811L22.037 12.3011C22.0207 12.3011 21.9623 12.301 21.8671 12.3006H21.8641C20.3744 12.2947 10.0139 12.2545 9.94774 12.4865C9.92664 12.5606 9.92893 12.6471 9.95471 12.7459C10.0145 12.82 10.1119 12.8571 10.2468 12.8571L16.8698 13.1906C18.7032 13.2895 19.9547 13.8207 20.6242 14.7843C21.3278 15.7232 21.4153 17.1191 20.8869 18.9723C20.3021 21.023 19.2747 22.592 17.8045 23.6791C16.3414 24.7416 14.4767 25.2728 12.2104 25.2728H0.433472Z" fill="#02000C"/>
<path fill-rule="evenodd" clip-rule="evenodd" d="M119.338 11.4166C119.338 12.9555 118.948 14.3234 118.169 15.5203C117.4 16.7172 116.326 17.6149 114.949 18.2134C113.571 18.8119 111.952 19.1111 110.09 19.1111H107.169L105.801 25.6799H99.6453L101.053 19.0196L108.75 14.7081H109.862C110.745 14.7081 111.453 14.4421 111.985 13.9102C112.384 13.5109 112.636 13.0316 112.741 12.4721L114.543 11.463L112.797 11.8362C112.796 11.1371 112.577 10.603 112.142 10.2339C111.705 9.85393 111.078 9.66395 110.261 9.66395H109.178L108.542 12.7458L102.087 14.1261L103.963 5.24673H112.213C114.512 5.24673 116.274 5.7787 117.499 6.84263C118.725 7.89706 119.338 9.42171 119.338 11.4166ZM135.719 12.9189H135.68C135.034 12.5962 134.331 12.4348 133.569 12.4348C132.227 12.4348 131.136 12.8221 130.297 13.5967C129.47 14.3713 128.844 15.7009 128.418 17.5857L126.714 25.6799H118.465L121.157 13.0351C121.789 10.0918 122.202 7.69709 122.396 5.85104H130.51C130.368 7.10325 130.2 8.37483 130.006 9.66577H130.084C130.845 8.1941 131.665 7.10971 132.543 6.4126C133.434 5.71549 134.466 5.36694 135.641 5.36694C136.132 5.36694 136.713 5.45085 137.384 5.61867L135.719 12.9189ZM157.058 20.4516C158.103 18.5281 158.626 16.4109 158.626 14.1002C158.626 11.3117 157.8 9.16231 156.148 7.65191C154.495 6.12859 152.159 5.36694 149.138 5.36694C147.15 5.36694 145.381 5.65095 143.832 6.21896C142.296 6.78697 140.998 7.60672 139.94 8.6782C138.881 9.73678 138.055 11.0471 137.461 12.6091C136.867 14.1712 136.571 15.7655 136.571 17.3921C136.571 20.1676 137.403 22.3235 139.068 23.8597C140.747 25.3959 143.116 26.164 146.175 26.164C148.68 26.164 150.861 25.6928 152.72 24.7504C154.579 23.7951 156.025 22.3622 157.058 20.4516ZM149.854 12.1057C150.229 12.5575 150.416 13.2223 150.416 14.1002C150.416 15.8429 150.093 17.2823 149.448 18.4184C148.802 19.5544 147.95 20.1224 146.892 20.1224C146.246 20.1224 145.73 19.9029 145.342 19.464C144.968 19.0122 144.781 18.3474 144.781 17.4695C144.781 16.4497 144.929 15.4621 145.226 14.5068C145.536 13.5386 145.956 12.7834 146.485 12.2412C147.014 11.6861 147.634 11.4085 148.344 11.4085C148.976 11.4085 149.48 11.6409 149.854 12.1057Z" fill="#01DAE3"/>
</svg>
